<svg xmlns="http://www.w3.org/2000/svg" width="100" height="100" viewBox="0 0 100 100">
    <g fill="none">
        <circle cx="50" cy="50" r="50" fill="#75C322"/>
        <path fill="#568F19" d="M91.469 22.43L47.664 67.998l.077 4.9h2.012l47.443-38.415c-1.393-4.277-3.328-8.398-5.727-12.053z"/>
        <path fill="#F2F1EF" d="M99.12 20.857l-8.839-8.762c-1.173-1.173-3.129-1.173-4.38 0l-37.78 39.036-16.347-16.115c-1.174-1.173-3.13-1.173-4.38 0l-7.822 7.745c-1.174 1.173-1.174 3.129 0 4.302l26.125 25.894c.704.704 1.642.939 2.58.86.94.079 1.878-.156 2.582-.86l48.261-47.72c1.173-1.251 1.173-3.207 0-4.38z"/>
        <path fill="#E6E5E3" d="M50.812 72.957l48.307-47.7c1.175-1.174 1.175-3.129 0-4.302l-1.41-1.329-49.56 48.64L20.748 41.6l-1.175 1.173c-1.174 1.173-1.174 3.128 0 4.3l26.15 25.884c.705.704 1.645.939 2.584.86.862.078 1.801-.156 2.506-.86z"/>
    </g>
</svg>
